<?xml version="1.0" encoding="utf-8"?>
<!-- Generator: Adobe Illustrator 21.0.2, SVG Export Plug-In . SVG Version: 6.00 Build 0)  -->
<svg version="1.1" id="Livello_1" xmlns="http://www.w3.org/2000/svg" xmlns:xlink="http://www.w3.org/1999/xlink" x="0px" y="0px"
	 viewBox="0 0 1280 716.5" style="enable-background:new 0 0 1280 716.5;" xml:space="preserve">
<style type="text/css">
	.st0{fill:#020202;}
	.st1{fill:none;stroke:#FFFFFF;stroke-miterlimit:10;}
	.st2{fill:#FFFFFF;}
	.st3{font-family:'Karla-Regular';}
	.st4{font-size:11.9442px;}
	.st5{fill:#2B95E9;stroke:#2B95E9;stroke-miterlimit:10;}
	.st6{font-family:'Karla-Bold';}
	.st7{fill:#2B95E9;}
	.st8{font-size:33.6718px;}
	.st9{fill:none;stroke:#2B95E9;stroke-width:0.5;stroke-miterlimit:10;}
	.st10{fill:none;stroke:#2B95E9;stroke-miterlimit:10;}
	.st11{fill:none;stroke:#2B95E9;stroke-width:2;stroke-miterlimit:10;}
	.st12{fill:#00B598;stroke:#00B598;stroke-miterlimit:10;}
	.st13{fill:#00B598;}
	.st14{fill:none;stroke:#00B598;stroke-width:0.5;stroke-miterlimit:10;}
	.st15{fill:none;stroke:#00B598;stroke-width:2;stroke-miterlimit:10;}
	.st16{fill:none;stroke:#00B598;stroke-miterlimit:10;}
	.st17{fill:#FF4863;stroke:#FF4863;stroke-miterlimit:10;}
	.st18{fill:#FF4863;}
	.st19{fill:none;stroke:#FF4863;stroke-width:2;stroke-miterlimit:10;}
	.st20{fill:none;stroke:#FF4863;stroke-miterlimit:10;}
	.st21{opacity:0.9;fill:#E5BE1C;stroke:#E5BE1C;stroke-miterlimit:10;enable-background:new    ;}
	.st22{fill:none;stroke:#E5BE1C;stroke-width:2;stroke-miterlimit:10;}
	.st23{opacity:0.9;fill:#E5BE1C;enable-background:new    ;}
	.st24{opacity:0.9;}
	.st25{fill:#E5BE1C;}
	.st26{fill:none;stroke:#E5BE1C;stroke-miterlimit:10;}
	.st27{fill:none;stroke:#E5BE1C;stroke-width:0.5;stroke-miterlimit:10;}
	.st28{font-size:25.6363px;}
</style>
<g id="bg">
	<rect id="XMLID_49_" x="0.7" y="0.1" class="st0" width="1279.3" height="716.4"/>
</g>
<g id="labels">
	<g id="XMLID_111_">
		<text transform="matrix(1 0 0 1 1338.5474 1794.8717)" class="st13 st6 st8">people - 20</text>
	</g>
	<text id="XMLID_139_" transform="matrix(1 0 0 1 1338.5481 529.4038)" class="st23 st6 st8">money - 1</text>
	<text id="XMLID_253_" transform="matrix(1 0 0 1 1338.5481 478.0494)" class="st23 st6 st8">berlino - 1</text>
	<text id="XMLID_254_" transform="matrix(1 0 0 1 1338.5481 426.6948)" class="st23 st6 st8">CITY - 2</text>
	<text id="XMLID_257_" transform="matrix(1 0 0 1 1338.5476 375.339)" class="st23 st6 st8">CANADA - 2</text>
	<text id="XMLID_258_" transform="matrix(1 0 0 1 1338.5476 323.9845)" class="st23 st6 st8">DESERT  - 3</text>
	<text id="XMLID_259_" transform="matrix(1 0 0 1 1338.5476 272.63)" class="st23 st6 st8">POSTERS - 6</text>
	<text id="XMLID_260_" transform="matrix(1 0 0 1 1338.5476 221.2755)" class="st23 st6 st8">CHARTS - 7</text>
	<text id="XMLID_262_" transform="matrix(1 0 0 1 1338.5476 162.8242)" class="st23 st6 st8">POLITICS - 12</text>
	<text id="XMLID_261_" transform="matrix(1 0 0 1 1338.5476 111.4697)" class="st23 st6 st8">PEOPLE - 15</text>
	<text id="XMLID_106_" transform="matrix(1 0 0 1 1338.5472 1107.2584)" class="st7 st6 st8">flag  -1</text>
	<text id="XMLID_19_" transform="matrix(1 0 0 1 1338.5472 1156.9601)" class="st7 st6 st8">automation - 1</text>
	<text id="XMLID_105_" transform="matrix(1 0 0 1 1338.5472 1055.9039)" class="st7 st6 st8">north america - 1</text>
	<text id="XMLID_104_" transform="matrix(1 0 0 1 1338.5472 1004.5495)" class="st7 st6 st8">europe - 1</text>
	<text id="XMLID_103_" transform="matrix(1 0 0 1 1338.5472 953.195)" class="st7 st6 st8">hungercount - 2</text>
	<text id="XMLID_102_" transform="matrix(1 0 0 1 1338.5472 901.8395)" class="st7 st6 st8">pilots - 5</text>
	<text id="XMLID_76_" transform="matrix(1 0 0 1 1338.5472 850.485)" class="st7 st6 st8">people - 6</text>
	<text id="XMLID_75_" transform="matrix(1 0 0 1 1338.5472 799.1306)" class="st7 st6 st8">charts - 7</text>
	<text id="XMLID_74_" transform="matrix(1 0 0 1 1338.5472 747.7761)" class="st7 st6 st8">money - 8</text>
	<text id="XMLID_73_" transform="matrix(1 0 0 1 1338.5472 689.325)" class="st7 st6 st8">posters - 11</text>
	<text id="XMLID_66_" transform="matrix(1 0 0 1 1338.5472 637.9705)" class="st7 st6 st8">pilot canada - 23</text>
	<g id="XMLID_62_">
		<text transform="matrix(1 0 0 1 1338.5479 1683.653)" class="st18 st6 st8">pilots - 1</text>
	</g>
	<g id="XMLID_60_">
		<text transform="matrix(1 0 0 1 1338.5479 1632.2985)" class="st18 st6 st8">world - 1</text>
	</g>
	<g id="XMLID_59_">
		<text transform="matrix(1 0 0 1 1338.5479 1580.944)" class="st18 st6 st8">nature - 3</text>
	</g>
	<g id="XMLID_58_">
		<text transform="matrix(1 0 0 1 1338.5479 1529.5895)" class="st18 st6 st8">money - 4</text>
	</g>
	<g id="XMLID_57_">
		<text transform="matrix(1 0 0 1 1338.5479 1478.234)" class="st18 st6 st8">sms - 5</text>
	</g>
	<g id="XMLID_56_">
		<text transform="matrix(1 0 0 1 1338.5479 1426.8795)" class="st18 st6 st8">pilot kenya - 6</text>
	</g>
	<g id="XMLID_55_">
		<text transform="matrix(1 0 0 1 1338.5479 1375.525)" class="st18 st6 st8">village - 9</text>
	</g>
	<g id="XMLID_54_">
		<text transform="matrix(1 0 0 1 1338.5479 1324.1707)" class="st18 st6 st8">agriculture - 11</text>
	</g>
	<g id="XMLID_52_">
		<text transform="matrix(1 0 0 1 1338.5479 1268.7195)" class="st18 st6 st8">people - 37</text>
	</g>
	<g id="XMLID_157_">
		<text transform="matrix(1 0 0 1 1338.5474 2209.8052)" class="st13 st6 st8">brazil - 2</text>
	</g>
	<g id="XMLID_150_">
		<text transform="matrix(1 0 0 1 1338.5474 2158.4507)" class="st13 st6 st8">pilots - 2</text>
	</g>
	<g id="XMLID_116_">
		<text transform="matrix(1 0 0 1 1338.5474 2318.2642)" class="st13 st6 st8">berlino - 1 </text>
	</g>
	<g id="XMLID_112_">
		<text transform="matrix(1 0 0 1 1338.5474 2266.9097)" class="st13 st6 st8">politics - 1</text>
	</g>
	<g id="XMLID_146_">
		<text transform="matrix(1 0 0 1 1338.5474 2107.0962)" class="st13 st6 st8">nature - 3</text>
	</g>
	<g id="XMLID_137_">
		<text transform="matrix(1 0 0 1 1338.5474 2055.7417)" class="st13 st6 st8">money - 4</text>
	</g>
	<g id="XMLID_130_">
		<text transform="matrix(1 0 0 1 1338.5474 2004.3861)" class="st13 st6 st8">posters - 6</text>
	</g>
	<g id="XMLID_120_">
		<text transform="matrix(1 0 0 1 1338.5474 1953.0316)" class="st13 st6 st8">studies - 9</text>
	</g>
	<g id="XMLID_117_">
		<text transform="matrix(1 0 0 1 1338.5474 1901.6771)" class="st13 st6 st8">charts - 11</text>
	</g>
	<g id="XMLID_114_">
		<text transform="matrix(1 0 0 1 1338.5474 1850.3231)" class="st13 st6 st8">pilot brazil - 12</text>
	</g>
</g>
<g id="Canada">
	<g id="switchcanada_1_">
		<rect id="XMLID_142_" x="207" y="149" class="st1" width="86.7" height="27.8"/>
		<g id="XMLID_141_">
			<text transform="matrix(1 0 0 1 217.7715 167.4574)" class="st2 st3 st4">namibia</text>
		</g>
		<rect id="XMLID_138_" x="309.8" y="149" class="st5" width="86.7" height="27.8"/>
		<g id="XMLID_135_">
			<text transform="matrix(1 0 0 1 320.5369 167.4574)" class="st0 st6 st4">canada</text>
		</g>
		<rect id="XMLID_132_" x="412.6" y="149" class="st1" width="86.7" height="27.8"/>
		<g id="XMLID_129_">
			<text transform="matrix(1 0 0 1 423.3022 167.4574)" class="st2 st3 st4">kenya</text>
		</g>
		<rect id="XMLID_126_" x="515.3" y="149" class="st1" width="86.7" height="27.8"/>
		<g id="XMLID_123_">
			<text transform="matrix(1 0 0 1 526.0676 167.4574)" class="st2 st3 st4">brasil</text>
		</g>
	</g>
	<g id="automation">
		
			<image style="overflow:visible;enable-background:new    ;" width="671" height="959" id="automationimage" xlink:href="C2E0449.jpg"  transform="matrix(9.851881e-03 0 0 9.851881e-03 1027.5618 454.7626)">
		</image>
		<text id="automationtext" transform="matrix(1 0 0 1 207.8647 276.1149)" class="st7 st6 st8">automation - 1</text>
		<rect id="automationrect" x="1027.4" y="454.6" class="st9" width="7" height="10"/>
	</g>
	<g id="northamerica">
		<text id="northamericatext" transform="matrix(1 0 0 1 207.8647 276.1149)" class="st7 st6 st8">north america - 1</text>
		
			<image style="overflow:visible;enable-background:new    ;" width="983" height="259" id="northamericaimage" xlink:href="C2E044B.jpg"  transform="matrix(3.737616e-02 0 0 3.794901e-02 1027.6067 496.5672)">
		</image>
		<rect id="northamericarect" x="1027.9" y="497.1" class="st10" width="37" height="9"/>
	</g>
	<g id="europe">
		<text id="europetext" transform="matrix(1 0 0 1 207.8647 276.1149)" class="st7 st6 st8">europe - 1</text>
		
			<image style="overflow:visible;enable-background:new    ;" width="440" height="186" id="europeimage" xlink:href="C2E044E.jpg"  transform="matrix(5.553594e-02 0 0 5.553593e-02 1027.7375 481.8865)">
		</image>
		<rect id="europerect" x="1027.9" y="482.1" class="st10" width="25" height="10"/>
	</g>
	<g id="pilotsworld">
		<text id="pilotsworldtext" transform="matrix(1 0 0 1 207.8647 276.1149)" class="st7 st6 st8">pilots - 5</text>
		
			<image style="overflow:visible;enable-background:new    ;" width="1023" height="641" id="pilotsworldimage" xlink:href="C2E044F.jpg"  transform="matrix(8.033033e-02 0 0 8.033031e-02 936.7477 397.5654)">
		</image>
		<rect id="pilotsworldrect" x="936.4" y="395.6" class="st11" width="84" height="53"/>
	</g>
	<g id="peoplecanada">
		<text id="peoplecanadatext" transform="matrix(1 0 0 1 207.8647 276.1149)" class="st7 st6 st8">people - 6</text>
		
			<image style="overflow:visible;enable-background:new    ;" width="1033" height="618" id="peoplecanadaimage" xlink:href="C2E044A.jpg"  transform="matrix(8.311965e-02 0 0 8.311965e-02 936.7089 454.7709)">
		</image>
		<rect id="peoplecanadarect" x="936.4" y="454.6" class="st11" width="86" height="52"/>
	</g>
	<g id="chartscanada">
		<text id="chartscanadatext" transform="matrix(1 0 0 1 207.8647 276.1149)" class="st7 st6 st8">charts - 7</text>
		
			<image style="overflow:visible;enable-background:new    ;" width="1217" height="1525" id="chartscanadaimage" xlink:href="C2E0445.jpg"  transform="matrix(6.746838e-02 0 0 6.746838e-02 847.989 403.4167)">
		</image>
		<rect id="chartscanadarect" x="848.4" y="403.6" class="st11" width="82" height="103"/>
	</g>
	<g id="moneycanada">
		<text id="moneycanadatext" transform="matrix(1 0 0 1 207.8647 276.1149)" class="st7 st6 st8">money - 8</text>
		
			<image style="overflow:visible;enable-background:new    ;" width="628" height="354" id="moneycanadaimage" xlink:href="C2E0446.jpg"  transform="matrix(0.1981 0 0 0.1981 848.1483 513.4671)">
		</image>
		<rect id="moneycanadarect" x="848.4" y="513.6" class="st11" width="124" height="70"/>
	</g>
	<g id="posterscanada">
		<text id="posterscanadatext" transform="matrix(1 0 0 1 207.8647 276.1149)" class="st7 st6 st8">posters - 11</text>
		
			<image style="overflow:visible;enable-background:new    ;" width="337" height="383" id="posterscanadaimage" xlink:href="C2E0447.jpg"  transform="matrix(0.5342 0 0 0.5342 658.9235 379.0336)">
		</image>
		<rect id="posterscanadarect" x="656.4" y="375.6" class="st11" width="185" height="208"/>
	</g>
	<g id="hungercount">
		<text id="hungercounttext" transform="matrix(1 0 0 1 207.8647 276.1149)" class="st7 st6 st8">hungercount - 2</text>
		
			<image style="overflow:visible;enable-background:new    ;" width="815" height="815" id="hungercountimage" xlink:href="C2E0459.png"  transform="matrix(6.384262e-02 0 0 6.384262e-02 978.3667 513.5567)">
		</image>
		<rect id="hungercountrect" x="977.9" y="512.1" class="st11" width="53" height="54"/>
	</g>
	<g id="flag">
		<text id="flagtext" transform="matrix(1 0 0 1 207.8647 276.1149)" class="st7 st6 st8">flag - 1</text>
		
			<image style="overflow:visible;enable-background:new    ;" width="3360" height="1977" id="flagimage" xlink:href="C2A69E92.png"  transform="matrix(4.885472e-03 0 0 4.885472e-03 1027.6321 468.4057)">
		</image>
		<rect id="flagrect" x="1027.9" y="468.1" class="st10" width="16" height="10"/>
	</g>
	<g id="pilotcanada">
		
			<image style="overflow:visible;enable-background:new    ;" width="1286" height="725" id="pilotcanadaimage" xlink:href="C2A69E92.jpg"  transform="matrix(0.3444 0 0 0.3444 205.3805 334.0684)">
		</image>
		<g id="pilotcanadarect">
			<path class="st7" d="M648.5,334.3v249.3H205.3V334.3H648.5 M650.5,332.3h-2H205.3h-2v2v249.3v2h2h443.2h2v-2V334.3V332.3
				L650.5,332.3z"/>
		</g>
		<text id="pilotcanadatext" transform="matrix(1 0 0 1 207.8647 276.1149)" class="st7 st6 st8">pilot canada - 23</text>
	</g>
</g>
<g id="Brazil">
	<g id="switchbrasil">
		<rect id="XMLID_224_" x="207.6" y="149.2" class="st1" width="86.7" height="27.8"/>
		<g id="XMLID_223_">
			<text transform="matrix(1 0 0 1 218.4048 167.7152)" class="st2 st3 st4">namibia</text>
		</g>
		<rect id="XMLID_220_" x="310.4" y="149.2" class="st1" width="86.7" height="27.8"/>
		<g id="XMLID_217_">
			<text transform="matrix(1 0 0 1 321.1702 167.7152)" class="st2 st3 st4">canada</text>
		</g>
		<rect id="XMLID_214_" x="413.2" y="149.2" class="st1" width="86.7" height="27.8"/>
		<g id="XMLID_211_">
			<text transform="matrix(1 0 0 1 423.9355 167.7152)" class="st2 st3 st4">kenya</text>
		</g>
		<rect id="XMLID_208_" x="515.9" y="149.2" class="st12" width="86.7" height="27.8"/>
		<g id="XMLID_205_">
			<text transform="matrix(1 0 0 1 526.7009 167.7152)" class="st2 st3 st4">brasil</text>
		</g>
	</g>
	<g id="berlinobrasil">
		<g id="berlinobrasiltext">
			<text transform="matrix(1 0 0 1 208.498 277.4856)" class="st13 st6 st8">berlino - 1</text>
		</g>
		
			<image style="overflow:visible;enable-background:new    ;" width="1215" height="810" id="berlinobrasilimage" xlink:href="C2A69E96.jpg"  transform="matrix(1.462984e-02 0 0 1.421055e-02 900.0646 458.0317)">
		</image>
		<rect id="berlinobrasilrect" x="900" y="457.9" class="st14" width="18" height="12"/>
	</g>
	<g id="politicsbrasil">
		<g id="politicsbrasiltext">
			<text transform="matrix(1 0 0 1 208.498 277.4856)" class="st13 st6 st8">politics - 1</text>
		</g>
		
			<image style="overflow:visible;enable-background:new    ;" width="239" height="151" id="politicsbrasilimage" xlink:href="C2A69E95.jpg"  transform="matrix(7.411158e-02 0 0 7.411157e-02 907.4656 440.1542)">
		</image>
		<rect id="politicsbrasilrect" x="907.5" y="439.4" class="st14" width="18" height="12"/>
	</g>
	<g id="naturebrasil">
		<g id="naturebrasiltext">
			<text transform="matrix(1 0 0 1 208.498 277.4856)" class="st13 st6 st8">nature - 3</text>
		</g>
		
			<image style="overflow:visible;enable-background:new    ;" width="2492" height="1849" id="naturebrasilimage" xlink:href="C2A69E93.jpg"  transform="matrix(3.672653e-02 0 0 3.672653e-02 804.0403 458.6257)">
		</image>
		<rect id="naturebrasilrect" x="803.5" y="458.4" class="st15" width="92" height="68.5"/>
	</g>
	<g id="moneybrasil">
		<g id="moneybrasiltext">
			<text transform="matrix(1 0 0 1 208.498 277.4856)" class="st13 st6 st8">money - 4</text>
		</g>
		
			<image style="overflow:visible;enable-background:new    ;" width="430" height="319" id="moneybrasilimage" xlink:href="C2A69E8D.jpg"  transform="matrix(0.1416 0 0 0.1416 782.4996 405.2291)">
		</image>
		<rect id="moneybrasilrect" x="783" y="404.9" class="st15" width="60" height="47"/>
	</g>
	<g id="postersbrasil">
		<g id="studiesbrasiltext">
			<text transform="matrix(1 0 0 1 208.498 277.4856)" class="st13 st6 st8">posters - 6</text>
		</g>
		
			<image style="overflow:visible;enable-background:new    ;" width="362" height="524" id="postersbrasilimage" xlink:href="C2A69E8E.jpg"  transform="matrix(0.2823 0 0 0.2823 519.2 435.851)">
		</image>
		<rect id="posterbrasilrect" x="519.5" y="435.4" class="st15" width="102" height="148"/>
	</g>
	<g id="studies">
		<g id="studiesbrasiltext_1_">
			<text transform="matrix(1 0 0 1 208.498 277.4856)" class="st13 st6 st8">studies - 9</text>
		</g>
		
			<image style="overflow:visible;enable-background:new    ;" width="965" height="728" id="studiesbrasilimage" xlink:href="C2A69E8C.jpg"  transform="matrix(0.1717 0 0 0.1717 629.6792 458.4592)">
		</image>
		<rect id="studiesbrasilrect" x="630" y="458.9" class="st15" width="166" height="125"/>
	</g>
	<g id="chartsbrasil">
		<g id="chartsbrasiltext">
			<text transform="matrix(1 0 0 1 208.498 277.4856)" class="st13 st6 st8">charts - 11</text>
		</g>
		
			<image style="overflow:visible;enable-background:new    ;" width="473" height="256" id="chartbrasiltext" xlink:href="C2A69EB2.jpg"  transform="matrix(0.3103 0 0 0.3103 629.5283 371.1376)">
		</image>
		<rect id="chartsbrasilrect" x="630" y="370.9" class="st15" width="146" height="80"/>
	</g>
	<g id="pilotbrasil">
		<g id="pilotbrasiltext">
			<text transform="matrix(1 0 0 1 208.498 277.4856)" class="st13 st6 st8">pilot brazil - 12</text>
		</g>
		
			<image style="overflow:visible;enable-background:new    ;" width="359" height="508" id="pilotbrasilimage" xlink:href="C2A69EB5.jpg"  transform="matrix(0.2666 0 0 0.2666 519.2931 291.3818)">
		</image>
		<rect id="pilotbrasilrect" x="519" y="291.9" class="st15" width="96" height="135"/>
	</g>
	<g id="peoplebrasil">
		<g id="peoplebrasiltext">
			<text transform="matrix(1 0 0 1 208.498 277.4856)" class="st13 st6 st8">people - 20</text>
		</g>
		
			<image style="overflow:visible;enable-background:new    ;" width="600" height="451" id="peoplebrasilimage" xlink:href="C2A69EA9.jpg"  transform="matrix(0.5016 0 0 0.5016 206.3923 357.1611)">
		</image>
		<g id="peoplebrasilrect">
			<path class="st13" d="M507.5,357.3v225.9H207.3V357.3L507.5,357.3 M509.5,355.3h-2H207.3h-2v2v225.9v2h2h300.2h2v-2V357.3V355.3
				L509.5,355.3z"/>
		</g>
	</g>
	<g id="brasil">
		<g id="brasilimagetext">
			<text transform="matrix(1 0 0 1 208.498 277.4856)" class="st13 st6 st8">brazil - 2</text>
		</g>
		
			<image style="overflow:visible;enable-background:new    ;" width="216" height="138" id="brasilimage" xlink:href="C2A69EAB.jpg"  transform="matrix(0.25 0 0 0.25 849.2167 416.2349)">
		</image>
		<rect id="brasilrect" x="849" y="416.9" class="st16" width="54" height="34"/>
	</g>
</g>
<g id="Kenya">
	<g id="switchkenya">
		<rect id="XMLID_183_" x="207.6" y="149" class="st1" width="86.7" height="27.8"/>
		<g id="XMLID_182_">
			<text transform="matrix(1 0 0 1 218.4048 167.4382)" class="st2 st3 st4">namibia</text>
		</g>
		<rect id="XMLID_179_" x="310.4" y="149" class="st1" width="86.7" height="27.8"/>
		<g id="XMLID_176_">
			<text transform="matrix(1 0 0 1 321.1702 167.4382)" class="st2 st3 st4">canada</text>
		</g>
		<rect id="XMLID_173_" x="413.2" y="149" class="st17" width="86.7" height="27.8"/>
		<g id="XMLID_170_">
			<text transform="matrix(1 0 0 1 423.9355 167.4382)" class="st2 st3 st4">kenya</text>
		</g>
		<rect id="XMLID_167_" x="515.9" y="149" class="st1" width="86.7" height="27.8"/>
		<g id="XMLID_164_">
			<text transform="matrix(1 0 0 1 526.7009 167.4382)" class="st2 st3 st4">brasil</text>
		</g>
	</g>
	<g id="agrigulture">
		
			<image style="overflow:visible;enable-background:new    ;" width="2009" height="1346" id="agricultureimage" xlink:href="C2A69EA8.jpg"  transform="matrix(0.102 0 0 0.102 673.2845 446.2405)">
		</image>
		<g id="agriculturetext">
			<text transform="matrix(1 0 0 1 208.498 277.2085)" class="st18 st6 st8">agriculture - 11</text>
		</g>
		<rect id="agriculturerect" x="673" y="446.1" class="st19" width="205" height="137"/>
	</g>
	<g id="worldimage_1_">
		<g id="worldtext">
			<text transform="matrix(1 0 0 1 208.498 277.2085)" class="st18 st6 st8">world - 1</text>
		</g>
		
			<image style="overflow:visible;enable-background:new    ;" width="185" height="185" id="worldimage" xlink:href="C2A69ED7.jpg"  transform="matrix(6.641957e-02 0 0 6.641957e-02 1032 428.0568)">
		</image>
		<rect id="worldrect" x="1031.5" y="427.6" class="st20" width="13" height="13"/>
	</g>
	<g id="village">
		
			<image style="overflow:visible;enable-background:new    ;" width="696" height="520" id="villageimage" xlink:href="C2A69ED9.jpg"  transform="matrix(0.2147 0 0 0.2147 673.0273 327.2373)">
		</image>
		<g id="villagetext">
			<text transform="matrix(1 0 0 1 208.498 277.2085)" class="st18 st6 st8">village - 9</text>
		</g>
		<rect id="villagerect" x="673" y="327.1" class="st19" width="149" height="112"/>
	</g>
	<g id="moneykenya">
		
			<image style="overflow:visible;enable-background:new    ;" width="487" height="349" id="moneykenyaimage" xlink:href="C2A69EDB.png"  transform="matrix(0.1894 0 0 0.182 935.8658 383.5903)">
		</image>
		<g id="moneykenyatext">
			<text transform="matrix(1 0 0 1 208.498 277.2085)" class="st18 st6 st8">money - 4</text>
		</g>
		<rect id="moneymenyarect" x="937" y="390.1" class="st19" width="90" height="50"/>
	</g>
	<g id="nature">
		
			<image style="overflow:visible;enable-background:new    ;" width="2690" height="2004" id="natureimage" xlink:href="C2A69ED8.jpg"  transform="matrix(1.831558e-02 0 0 1.831558e-02 1011.8377 445.5313)">
		</image>
		<g id="naturetext">
			<text transform="matrix(1 0 0 1 208.498 277.2085)" class="st18 st6 st8">nature - 3</text>
		</g>
		<rect id="naturerect" x="1012" y="446.1" class="st20" width="49" height="36"/>
	</g>
	<g id="sms">
		
			<image style="overflow:visible;enable-background:new    ;" width="1205" height="638" id="smsimage" xlink:href="C2A69EDF.jpg"  transform="matrix(9.811909e-02 0 0 9.811907e-02 887.2373 446.2455)">
		</image>
		<g id="smstext">
			<text transform="matrix(1 0 0 1 208.498 277.2085)" class="st18 st6 st8">sms - 5</text>
		</g>
		<rect id="smsrect" x="887" y="446.1" class="st19" width="119" height="63"/>
	</g>
	<g id="kenyapeople">
		
			<image style="overflow:visible;enable-background:new    ;" width="1606" height="966" id="kenyapeopleimage" xlink:href="C2A69ED9.png"  transform="matrix(0.2837 0 0 0.2837 207.7881 309.411)">
		</image>
		<g id="kenyapeopletext">
			<text transform="matrix(1 0 0 1 208.498 277.2085)" class="st18 st6 st8">people - 37</text>
		</g>
		<rect id="kenyapeoplerect" x="208" y="310.1" class="st19" width="456" height="273"/>
	</g>
	<g id="pilotkenya">
		
			<image style="overflow:visible;enable-background:new    ;" width="745" height="534" id="pilotkenyaimage" xlink:href="C2A69EDB.jpg"  transform="matrix(0.1404 0 0 0.1404 827.8739 364.5103)">
		</image>
		<g id="pilotkenyatext">
			<text transform="matrix(1 0 0 1 208.498 277.2085)" class="st18 st6 st8">pilot kenya - 6</text>
		</g>
		<rect id="pilotkenyarect" x="828" y="365.1" class="st19" width="105" height="74"/>
	</g>
</g>
<g id="Namibia">
	<g id="switchcanada">
		<rect id="XMLID_1480_" x="207.6" y="149.2" class="st21" width="86.7" height="27.8"/>
		<text id="XMLID_1479_" transform="matrix(1 0 0 1 218.4048 167.673)" class="st0 st6 st4">namibia</text>
		<rect id="XMLID_1476_" x="310.4" y="149.2" class="st1" width="86.7" height="27.8"/>
		<g id="XMLID_1467_">
			<text transform="matrix(1 0 0 1 321.1702 167.673)" class="st2 st3 st4">canada</text>
		</g>
		<rect id="XMLID_1463_" x="413.2" y="149.2" class="st1" width="86.7" height="27.8"/>
		<g id="XMLID_1460_">
			<text transform="matrix(1 0 0 1 423.9355 167.673)" class="st2 st3 st4">kenya</text>
		</g>
		<rect id="XMLID_1457_" x="515.9" y="149.2" class="st1" width="86.7" height="27.8"/>
		<g id="XMLID_1379_">
			<text transform="matrix(1 0 0 1 526.7009 167.673)" class="st2 st3 st4">brasil</text>
		</g>
	</g>
	<g id="desert" transform="matrix(0.43074061,0,0,-0.43074061,8.293601,376.65873)">
		<polygon id="desertrect" class="st22" points="1921.2,159.5 1996.2,159.5 1996.2,159.5 		"/>
		
			<image style="overflow:visible;enable-background:new    ;" width="1926" height="1470" id="desertimage" xlink:href="C2A69EFC.png"  transform="matrix(9.071239e-02 0 0 -9.071241e-02 1871.4514 197.2032)">
		</image>
		<text id="deserttext" transform="matrix(2.3216 0 0 -2.3216 464.789 230.3371)" class="st23 st6 st8">desert</text>
	</g>
	<g id="poster" transform="matrix(0.43074061,0,0,-0.43074061,38.650671,353.27599)">
		<g id="posterrect" class="st24">
			<path class="st25" d="M1772,274.9V10.3h-484v264.6H1772 M1776.6,279.6h-4.6h-484h-4.6V275V10.3V5.7h4.6h484h4.6v4.6v264.6V279.6
				L1776.6,279.6z"/>
		</g>
		
			<image style="overflow:visible;enable-background:new    ;" width="569" height="313" id="posterimage" xlink:href="C2A69EC3.png"  transform="matrix(0.8494 0 0 -0.8494 1288.3314 275.558)">
		</image>
		<text id="posterstext_8_" transform="matrix(2.3216 0 0 -2.3216 394.313 176.0525)" class="st23 st6 st8">posters</text>
	</g>
	<g id="berlinonamibia" transform="matrix(0.43074061,0,0,-0.43074061,91.065641,417.94221)">
		<polygon id="berlinonamibiarect" class="st26" points="1998.3,33.8 2022.3,33.8 2022.3,33.8 		"/>
		
			<image style="overflow:visible;enable-background:new    ;" width="470" height="357" id="berlinonamibiaimage" xlink:href="C2A69EC4.png"  transform="matrix(0.1177 0 0 -0.1177 1981.8708 46.5061)">
		</image>
		<text id="berlinonamibiatext" transform="matrix(2.3216 0 0 -2.3216 272.6275 326.1798)" class="st23 st6 st8">berlino - 1 </text>
	</g>
	<g id="politics" transform="matrix(0.43074061,0,0,-0.43074061,88.633272,338.62508)">
		<polygon id="politicsrect" class="st22" points="1286.6,-190.9 1461.6,-190.9 1461.6,-190.9 		"/>
		
			<image style="overflow:visible;enable-background:new    ;" width="198" height="257" id="politicsimage" xlink:href="C2A69EC7.png"  transform="matrix(2.0516 0 0 -2.0516 1171.8009 -41.4675)">
		</image>
		<text id="politicstext" transform="matrix(2.3216 0 0 -2.3216 278.2744 142.0393)" class="st23 st6 st8">politics - 12</text>
	</g>
	<g id="charts" transform="matrix(0.43074061,0,0,-0.43074061,36.514046,399.10812)">
		<polygon id="chartsrect" class="st22" points="1806.3,12.3 1938.3,12.3 1938.3,12.3 		"/>
		
			<image style="overflow:visible;enable-background:new    ;" width="1206" height="1234" id="chartsimage" xlink:href="C2A69EC5.png"  transform="matrix(0.2474 0 0 -0.2474 1720.1078 98.9952)">
		</image>
		<text id="chartstext" transform="matrix(2.3216 0 0 -2.3216 399.2731 282.4552)" class="st23 st6 st8">charts - 7</text>
	</g>
	<g id="people" transform="matrix(0.43074061,0,0,-0.43074061,18.572332,280.65619)">
		<polygon id="peoplerect" class="st22" points="689.7,-232 1069.7,-232 1069.7,-232 		"/>
		
			<image style="overflow:visible;enable-background:new    ;" width="550" height="412" id="peopleimage" xlink:href="C2A69EC2.png"  transform="matrix(1.6029 0 0 -1.6029 439.3102 -43.5544)">
		</image>
		<text id="peopletext" transform="matrix(2.3216 0 0 -2.3216 440.9261 7.4598)" class="st23 st6 st8">people - 15</text>
	</g>
	<g id="money">
		<rect id="moneyrect" x="912.5" y="397.8" class="st26" width="28" height="18"/>
		
			<image style="overflow:visible;enable-background:new    ;" width="4758" height="3014" id="moneyimage" xlink:href="C2A69ECC.png"  transform="matrix(6.167594e-03 0 0 6.167595e-03 911.152 397.5235)">
		</image>
		<text id="moneytext" transform="matrix(1 0 0 1 208.498 277.4434)" class="st23 st6 st8">money - 1</text>
	</g>
	<g id="canada">
		<rect id="canadarect" x="912.5" y="356.8" class="st27" width="54" height="36"/>
		<text id="canadatext" transform="matrix(1.2505 0 0 1 208.498 270.8184)" class="st23 st6 st28">canada - 2</text>
		
			<image style="overflow:visible;enable-background:new    ;" width="1177" height="792" id="canadaimage" xlink:href="C2A69ECF.png"  transform="matrix(4.564356e-02 0 0 4.564356e-02 912.8215 356.2995)">
		</image>
	</g>
</g>
</svg>
