<?xml version="1.0" encoding="utf-8"?>
<!-- Generator: Adobe Illustrator 21.0.2, SVG Export Plug-In . SVG Version: 6.00 Build 0)  -->
<svg version="1.1" xmlns="http://www.w3.org/2000/svg" xmlns:xlink="http://www.w3.org/1999/xlink" x="0px" y="0px"
	 viewBox="0 0 1280 2351.9" style="enable-background:new 0 0 1280 2351.9;" xml:space="preserve">
<style type="text/css">
	.st0{fill:#020202;}
	.st1{display:none;}
	.st2{display:inline;}
	.st3{fill:none;stroke:#FFFFFF;stroke-miterlimit:10;}
	.st4{fill:#FFFFFF;}
	.st5{font-family:'Karla-Regular';}
	.st6{font-size:11.9442px;}
	.st7{fill:#2B95E9;stroke:#2B95E9;stroke-miterlimit:10;}
	.st8{font-family:'Karla-Bold';}
	.st9{fill:#2B95E9;}
	.st10{font-size:33.6718px;}
	.st11{fill:none;stroke:#2B95E9;stroke-width:0.5;stroke-miterlimit:10;}
	.st12{fill:none;stroke:#2B95E9;stroke-miterlimit:10;}
	.st13{fill:none;stroke:#2B95E9;stroke-width:2;stroke-miterlimit:10;}
	.st14{fill:#00B598;stroke:#00B598;stroke-miterlimit:10;}
	.st15{fill:#00B598;}
	.st16{fill:none;stroke:#00B598;stroke-width:0.5;stroke-miterlimit:10;}
	.st17{fill:none;stroke:#00B598;stroke-width:2;stroke-miterlimit:10;}
	.st18{fill:none;stroke:#00B598;stroke-miterlimit:10;}
	.st19{fill:#FF4863;stroke:#FF4863;stroke-miterlimit:10;}
	.st20{fill:#FF4863;}
	.st21{fill:none;stroke:#FF4863;stroke-width:2;stroke-miterlimit:10;}
	.st22{fill:none;stroke:#FF4863;stroke-miterlimit:10;}
	.st23{opacity:0.9;fill:#E5BE1C;stroke:#E5BE1C;stroke-miterlimit:10;}
	.st24{fill:none;stroke:#E5BE1C;stroke-width:2;stroke-miterlimit:10;}
	.st25{opacity:0.9;fill:#E5BE1C;}
	.st26{opacity:0.9;}
	.st27{fill:#E5BE1C;}
	.st28{fill:none;stroke:#E5BE1C;stroke-miterlimit:10;}
	.st29{fill:none;stroke:#E5BE1C;stroke-width:0.5;stroke-miterlimit:10;}
	.st30{font-size:25.6363px;}
</style>
<g id="bg">
	<rect id="XMLID_49_" x="0.7" y="0.1" class="st0" width="1279.3" height="2351.8"/>
</g>
<g id="labels" class="st1">
	<g id="XMLID_111_" class="st2">
		<text transform="matrix(1 0 0 1 1338.5474 1794.8717)" class="st15 st8 st10">people - 20</text>
	</g>
	
		<text id="XMLID_139_" transform="matrix(1 0 0 1 1338.5481 529.4039)" class="st8 st10" style="display:inline;opacity:0.9;fill:#E5BE1C;">money - 1</text>
	
		<text id="XMLID_253_" transform="matrix(1 0 0 1 1338.5481 478.0494)" class="st8 st10" style="display:inline;opacity:0.9;fill:#E5BE1C;">berlino - 1</text>
	
		<text id="XMLID_254_" transform="matrix(1 0 0 1 1338.5481 426.6949)" class="st8 st10" style="display:inline;opacity:0.9;fill:#E5BE1C;">CITY - 2</text>
	
		<text id="XMLID_257_" transform="matrix(1 0 0 1 1338.5476 375.339)" class="st8 st10" style="display:inline;opacity:0.9;fill:#E5BE1C;">CANADA - 2</text>
	
		<text id="XMLID_258_" transform="matrix(1 0 0 1 1338.5476 323.9845)" class="st8 st10" style="display:inline;opacity:0.9;fill:#E5BE1C;">DESERT  - 3</text>
	
		<text id="XMLID_259_" transform="matrix(1 0 0 1 1338.5476 272.63)" class="st8 st10" style="display:inline;opacity:0.9;fill:#E5BE1C;">POSTERS - 6</text>
	
		<text id="XMLID_260_" transform="matrix(1 0 0 1 1338.5476 221.2755)" class="st8 st10" style="display:inline;opacity:0.9;fill:#E5BE1C;">CHARTS - 7</text>
	
		<text id="XMLID_262_" transform="matrix(1 0 0 1 1338.5476 162.8243)" class="st8 st10" style="display:inline;opacity:0.9;fill:#E5BE1C;">POLITICS - 12</text>
	
		<text id="XMLID_261_" transform="matrix(1 0 0 1 1338.5476 111.4698)" class="st8 st10" style="display:inline;opacity:0.9;fill:#E5BE1C;">PEOPLE - 15</text>
	<text id="XMLID_106_" transform="matrix(1 0 0 1 1338.5472 1107.2584)" class="st8 st10" style="display:inline;fill:#2B95E9;">flag  -1</text>
	<text id="XMLID_19_" transform="matrix(1 0 0 1 1338.5472 1156.9601)" class="st8 st10" style="display:inline;fill:#2B95E9;">automation - 1</text>
	<text id="XMLID_105_" transform="matrix(1 0 0 1 1338.5472 1055.9039)" class="st8 st10" style="display:inline;fill:#2B95E9;">north america - 1</text>
	<text id="XMLID_104_" transform="matrix(1 0 0 1 1338.5472 1004.5495)" class="st8 st10" style="display:inline;fill:#2B95E9;">europe - 1</text>
	<text id="XMLID_103_" transform="matrix(1 0 0 1 1338.5472 953.195)" class="st8 st10" style="display:inline;fill:#2B95E9;">hungercount - 2</text>
	<text id="XMLID_102_" transform="matrix(1 0 0 1 1338.5472 901.8395)" class="st8 st10" style="display:inline;fill:#2B95E9;">pilots - 5</text>
	<text id="XMLID_76_" transform="matrix(1 0 0 1 1338.5472 850.485)" class="st8 st10" style="display:inline;fill:#2B95E9;">people - 6</text>
	<text id="XMLID_75_" transform="matrix(1 0 0 1 1338.5472 799.1306)" class="st8 st10" style="display:inline;fill:#2B95E9;">charts - 7</text>
	<text id="XMLID_74_" transform="matrix(1 0 0 1 1338.5472 747.7761)" class="st8 st10" style="display:inline;fill:#2B95E9;">money - 8</text>
	<text id="XMLID_73_" transform="matrix(1 0 0 1 1338.5472 689.325)" class="st8 st10" style="display:inline;fill:#2B95E9;">posters - 11</text>
	<text id="XMLID_66_" transform="matrix(1 0 0 1 1338.5472 637.9705)" class="st8 st10" style="display:inline;fill:#2B95E9;">pilot canada - 23</text>
	<g id="XMLID_62_" class="st2">
		<text transform="matrix(1 0 0 1 1338.5479 1683.653)" class="st20 st8 st10">pilots - 1</text>
	</g>
	<g id="XMLID_60_" class="st2">
		<text transform="matrix(1 0 0 1 1338.5479 1632.2985)" class="st20 st8 st10">world - 1</text>
	</g>
	<g id="XMLID_59_" class="st2">
		<text transform="matrix(1 0 0 1 1338.5479 1580.944)" class="st20 st8 st10">nature - 3</text>
	</g>
	<g id="XMLID_58_" class="st2">
		<text transform="matrix(1 0 0 1 1338.5479 1529.5895)" class="st20 st8 st10">money - 4</text>
	</g>
	<g id="XMLID_57_" class="st2">
		<text transform="matrix(1 0 0 1 1338.5479 1478.234)" class="st20 st8 st10">sms - 5</text>
	</g>
	<g id="XMLID_56_" class="st2">
		<text transform="matrix(1 0 0 1 1338.5479 1426.8795)" class="st20 st8 st10">pilot kenya - 6</text>
	</g>
	<g id="XMLID_55_" class="st2">
		<text transform="matrix(1 0 0 1 1338.5479 1375.525)" class="st20 st8 st10">village - 9</text>
	</g>
	<g id="XMLID_54_" class="st2">
		<text transform="matrix(1 0 0 1 1338.5479 1324.1707)" class="st20 st8 st10">agriculture - 11</text>
	</g>
	<g id="XMLID_52_" class="st2">
		<text transform="matrix(1 0 0 1 1338.5479 1268.7195)" class="st20 st8 st10">people - 37</text>
	</g>
	<g id="XMLID_157_" class="st2">
		<text transform="matrix(1 0 0 1 1338.5474 2209.8052)" class="st15 st8 st10">brazil - 2</text>
	</g>
	<g id="XMLID_150_" class="st2">
		<text transform="matrix(1 0 0 1 1338.5474 2158.4507)" class="st15 st8 st10">pilots - 2</text>
	</g>
	<g id="XMLID_116_" class="st2">
		<text transform="matrix(1 0 0 1 1338.5474 2318.2642)" class="st15 st8 st10">berlino - 1 </text>
	</g>
	<g id="XMLID_112_" class="st2">
		<text transform="matrix(1 0 0 1 1338.5474 2266.9097)" class="st15 st8 st10">politics - 1</text>
	</g>
	<g id="XMLID_146_" class="st2">
		<text transform="matrix(1 0 0 1 1338.5474 2107.0962)" class="st15 st8 st10">nature - 3</text>
	</g>
	<g id="XMLID_137_" class="st2">
		<text transform="matrix(1 0 0 1 1338.5474 2055.7417)" class="st15 st8 st10">money - 4</text>
	</g>
	<g id="XMLID_130_" class="st2">
		<text transform="matrix(1 0 0 1 1338.5474 2004.3861)" class="st15 st8 st10">posters - 6</text>
	</g>
	<g id="XMLID_120_" class="st2">
		<text transform="matrix(1 0 0 1 1338.5474 1953.0316)" class="st15 st8 st10">studies - 9</text>
	</g>
	<g id="XMLID_117_" class="st2">
		<text transform="matrix(1 0 0 1 1338.5474 1901.6771)" class="st15 st8 st10">charts - 11</text>
	</g>
	<g id="XMLID_114_" class="st2">
		<text transform="matrix(1 0 0 1 1338.5474 1850.3231)" class="st15 st8 st10">pilot brazil - 12</text>
	</g>
</g>
<g id="Canada">
	<g id="switch">
		<rect id="XMLID_142_" x="210.6" y="707.7" class="st3" width="86.7" height="27.8"/>
		<g id="XMLID_141_">
			<text transform="matrix(1 0 0 1 221.4048 726.1538)" class="st4 st5 st6">namibia</text>
		</g>
		<rect id="XMLID_138_" x="313.4" y="707.7" class="st7" width="86.7" height="27.8"/>
		<g id="XMLID_135_">
			<text transform="matrix(1 0 0 1 324.1702 726.1538)" class="st0 st8 st6">canada</text>
		</g>
		<rect id="XMLID_132_" x="416.2" y="707.7" class="st3" width="86.7" height="27.8"/>
		<g id="XMLID_129_">
			<text transform="matrix(1 0 0 1 426.9355 726.1538)" class="st4 st5 st6">kenya</text>
		</g>
		<rect id="XMLID_126_" x="518.9" y="707.7" class="st3" width="86.7" height="27.8"/>
		<g id="XMLID_123_">
			<text transform="matrix(1 0 0 1 529.7009 726.1538)" class="st4 st5 st6">brasil</text>
		</g>
	</g>
	<g id="automation">
		
			<image style="overflow:visible;enable-background:new    ;" width="638" height="903" id="automationimage" xlink:href="C2E0449.jpg"  transform="matrix(1.042920e-02 0 0 1.042920e-02 1031.1735 1013.4742)">
		</image>
		<text id="automationtext" transform="matrix(1 0 0 1 211.498 834.8112)" class="st9 st8 st10">automation - 1</text>
		<rect id="automationrect" x="1031" y="1013.3" class="st11" width="7" height="10"/>
	</g>
	<g id="northamerica">
		<text id="northamericatext" transform="matrix(1 0 0 1 211.498 834.8112)" class="st9 st8 st10">north america - 1</text>
		
			<image style="overflow:visible;enable-background:new    ;" width="954" height="237" id="northamericaimage" xlink:href="C2E044B.jpg"  transform="matrix(3.865182e-02 0 0 3.924423e-02 1031.1735 1055.5275)">
		</image>
		<rect id="northamericarect" x="1031.5" y="1055.8" class="st12" width="37" height="9"/>
	</g>
	<g id="europe">
		<text id="europetext" transform="matrix(1 0 0 1 211.498 834.8112)" class="st9 st8 st10">europe - 1</text>
		
			<image style="overflow:visible;enable-background:new    ;" width="420" height="158" id="europeimage" xlink:href="C2E044E.jpg"  transform="matrix(5.912038e-02 0 0 5.912037e-02 1031.1735 1041.0773)">
		</image>
		<rect id="europerect" x="1031.5" y="1040.8" class="st12" width="25" height="10"/>
	</g>
	<g id="pilotsworld">
		<text id="pilotsworldtext" transform="matrix(1 0 0 1 211.498 834.8112)" class="st9 st8 st10">pilots - 5</text>
		
			<image style="overflow:visible;enable-background:new    ;" width="1014" height="633" id="pilotsworldimage" xlink:href="C2E044F.jpg"  transform="matrix(8.112819e-02 0 0 8.112817e-02 940.338 956.3305)">
		</image>
		<rect id="pilotsworldrect" x="940" y="954.3" class="st13" width="84" height="53"/>
	</g>
	<g id="peoplecanada">
		<text id="peoplecanadatext" transform="matrix(1 0 0 1 211.498 834.8112)" class="st9 st8 st10">people - 6</text>
		
			<image style="overflow:visible;enable-background:new    ;" width="1020" height="610" id="peoplecanadaimage" xlink:href="C2E044A.jpg"  transform="matrix(8.418711e-02 0 0 8.418711e-02 940.338 1013.4742)">
		</image>
		<rect id="peoplecanadarect" x="940" y="1013.3" class="st13" width="86" height="52"/>
	</g>
	<g id="chartscanada">
		<text id="chartscanadatext" transform="matrix(1 0 0 1 211.498 834.8112)" class="st9 st8 st10">charts - 7</text>
		
			<image style="overflow:visible;enable-background:new    ;" width="1200" height="1512" id="chartscanadaimage" xlink:href="C2E0445.jpg"  transform="matrix(6.819391e-02 0 0 6.819391e-02 851.7605 962.0031)">
		</image>
		<rect id="chartscanadarect" x="852" y="962.3" class="st13" width="82" height="103"/>
	</g>
	<g id="moneycanada">
		<text id="moneycanadatext" transform="matrix(1 0 0 1 211.498 834.8112)" class="st9 st8 st10">money - 8</text>
		
			<image style="overflow:visible;enable-background:new    ;" width="620" height="349" id="moneycanadaimage" xlink:href="C2E0446.jpg"  transform="matrix(0.2007 0 0 0.2007 851.7605 1072.2008)">
		</image>
		<rect id="moneycanadarect" x="852" y="1072.3" class="st13" width="124" height="70"/>
	</g>
	<g id="posterscanada">
		<text id="posterscanadatext" transform="matrix(1 0 0 1 211.498 834.8112)" class="st9 st8 st10">posters - 11</text>
		
			<image style="overflow:visible;enable-background:new    ;" width="336" height="381" id="posterscanadaimage" xlink:href="C2E0447.jpg"  transform="matrix(0.5365 0 0 0.5365 662.442 937.8312)">
		</image>
		<rect id="posterscanadarect" x="660" y="934.3" class="st13" width="185" height="208"/>
	</g>
	<g id="hungercount">
		<text id="hungercounttext" transform="matrix(1 0 0 1 211.498 834.8112)" class="st9 st8 st10">hungercount - 2</text>
		
			<image style="overflow:visible;" width="800" height="800" id="hungercountimage" xlink:href="C2E0459.png"  transform="matrix(6.503967e-02 0 0 6.503967e-02 982 1072.2531)">
		</image>
		<rect id="hungercountrect" x="981.5" y="1070.8" class="st13" width="53" height="54"/>
	</g>
	<g id="flag">
		<text id="flagtext" transform="matrix(1 0 0 1 211.498 834.8112)" class="st9 st8 st10">flag - 1</text>
		
			<image style="overflow:visible;" width="3281" height="1846" id="flagimage" xlink:href="C2A69E92.png"  transform="matrix(5.059128e-03 0 0 5.059128e-03 1031.1735 1027.2617)">
		</image>
		<rect id="flagrect" x="1031.5" y="1026.8" class="st12" width="16" height="10"/>
	</g>
	<g id="pilotcanada">
		
			<image style="overflow:visible;enable-background:new    ;" width="1280" height="720" id="pilotcanadaimage" xlink:href="C2A69E92.jpg"  transform="matrix(0.3462 0 0 0.3462 208.8941 892.9773)">
		</image>
		<g id="pilotcanadarect">
			<path class="st9" d="M652.1,893v249.3H208.9V893H652.1 M654.1,891h-2H208.9h-2v2v249.3v2h2h443.2h2v-2V893V891L654.1,891z"/>
		</g>
		<text id="pilotcanadatext" transform="matrix(1 0 0 1 211.498 834.8112)" class="st9 st8 st10">pilot canada - 23</text>
	</g>
</g>
<g id="Brazil">
	<g id="switch">
		<rect id="XMLID_224_" x="207.6" y="1761.6" class="st3" width="86.7" height="27.8"/>
		<g id="XMLID_223_">
			<text transform="matrix(1 0 0 1 218.4048 1780.1152)" class="st4 st5 st6">namibia</text>
		</g>
		<rect id="XMLID_220_" x="310.4" y="1761.6" class="st3" width="86.7" height="27.8"/>
		<g id="XMLID_217_">
			<text transform="matrix(1 0 0 1 321.1702 1780.1152)" class="st4 st5 st6">canada</text>
		</g>
		<rect id="XMLID_214_" x="413.2" y="1761.6" class="st3" width="86.7" height="27.8"/>
		<g id="XMLID_211_">
			<text transform="matrix(1 0 0 1 423.9355 1780.1152)" class="st4 st5 st6">kenya</text>
		</g>
		<rect id="XMLID_208_" x="515.9" y="1761.6" class="st14" width="86.7" height="27.8"/>
		<g id="XMLID_205_">
			<text transform="matrix(1 0 0 1 526.7009 1780.1152)" class="st4 st5 st6">brasil</text>
		</g>
	</g>
	<g id="berlinobrasil">
		<g id="berlinobrasiltext">
			<text transform="matrix(1 0 0 1 208.498 1889.8856)" class="st15 st8 st10">berlino - 1</text>
		</g>
		
			<image style="overflow:visible;enable-background:new    ;" width="1200" height="800" id="berlinobrasilimage" xlink:href="C2A69E96.jpg"  transform="matrix(1.481271e-02 0 0 1.438818e-02 900.0646 2070.4316)">
		</image>
		<rect id="berlinobrasilrect" x="900" y="2070.3" class="st16" width="18" height="12"/>
	</g>
	<g id="politicsbrasil">
		<g id="politicsbrasiltext">
			<text transform="matrix(1 0 0 1 208.498 1889.8856)" class="st15 st8 st10">politics - 1</text>
		</g>
		
			<image style="overflow:visible;enable-background:new    ;" width="220" height="146" id="politicsbrasilimage" xlink:href="C2A69E95.jpg"  transform="matrix(7.935111e-02 0 0 7.935110e-02 907.5933 2052.3569)">
		</image>
		<rect id="politicsbrasilrect" x="907.5" y="2051.8" class="st16" width="18" height="12"/>
	</g>
	<g id="naturebrasil">
		<g id="naturebrasiltext">
			<text transform="matrix(1 0 0 1 208.498 1889.8856)" class="st15 st8 st10">nature - 3</text>
		</g>
		
			<image style="overflow:visible;enable-background:new    ;" width="2455" height="1816" id="naturebrasilimage" xlink:href="C2A69E93.jpg"  transform="matrix(3.732036e-02 0 0 3.732036e-02 803.9908 2071.0925)">
		</image>
		<rect id="naturebrasilrect" x="803.5" y="2070.8" class="st17" width="92" height="68.5"/>
	</g>
	<g id="moneybrasil">
		<g id="moneybrasiltext">
			<text transform="matrix(1 0 0 1 208.498 1889.8856)" class="st15 st8 st10">money - 4</text>
		</g>
		
			<image style="overflow:visible;enable-background:new    ;" width="420" height="315" id="moneybrasilimage" xlink:href="C2A69E8D.jpg"  transform="matrix(0.1444 0 0 0.1444 782.6181 2017.4701)">
		</image>
		<rect id="moneybrasilrect" x="783" y="2017.3" class="st17" width="60" height="47"/>
	</g>
	<g id="postersbrasil">
		<g id="postersbrasiltext">
			<text transform="matrix(1 0 0 1 208.498 1889.8856)" class="st15 st8 st10">posters - 6</text>
		</g>
		
			<image style="overflow:visible;enable-background:new    ;" width="358" height="520" id="postersbrasilimage" xlink:href="C2A69E8E.jpg"  transform="matrix(0.2848 0 0 0.2848 519.3192 2048.1687)">
		</image>
		<rect id="postersbrasilrect" x="519.5" y="2047.8" class="st17" width="102" height="148"/>
	</g>
	<g id="studies">
		<g id="studiesbrasiltext">
			<text transform="matrix(1 0 0 1 208.498 1889.8856)" class="st15 st8 st10">studies - 9</text>
		</g>
		
			<image style="overflow:visible;enable-background:new    ;" width="960" height="720" id="studiesbrasilimage" xlink:href="C2A69E8C.jpg"  transform="matrix(0.173 0 0 0.173 629.5037 2071.0925)">
		</image>
		<rect id="studiesbrasilrect" x="630" y="2071.3" class="st17" width="166" height="125"/>
	</g>
	<g id="chartsbrasil">
		<g id="chartsbrasiltext">
			<text transform="matrix(1 0 0 1 208.498 1889.8856)" class="st15 st8 st10">charts - 11</text>
		</g>
		
			<image style="overflow:visible;enable-background:new    ;" width="470" height="254" id="chartsbrasilimage" xlink:href="C2A69EB2.jpg"  transform="matrix(0.3124 0 0 0.3124 629.5037 1983.5831)">
		</image>
		<rect id="chartsbrasilrect" x="630" y="1983.3" class="st17" width="146" height="80"/>
	</g>
	<g id="pilotbrasil">
		<g id="pilotbrasiltext">
			<text transform="matrix(1 0 0 1 208.498 1889.8856)" class="st15 st8 st10">pilot brazil - 12</text>
		</g>
		
			<image style="overflow:visible;enable-background:new    ;" width="358" height="507" id="pilotbrasilimage" xlink:href="C2A69EB5.jpg"  transform="matrix(0.2672 0 0 0.2672 519.3192 1903.7633)">
		</image>
		<rect id="pilotbrasilrect" x="519" y="1904.3" class="st17" width="96" height="135"/>
	</g>
	<g id="peoplebrasil">
		<g id="peoplebrasiltext">
			<text transform="matrix(1 0 0 1 208.498 1889.8856)" class="st15 st8 st10">people - 20</text>
		</g>
		
			<image style="overflow:visible;enable-background:new    ;" width="600" height="450" id="peoplebrasilimage" xlink:href="C2A69EA9.jpg"  transform="matrix(0.502 0 0 0.502 206.2718 1969.7214)">
		</image>
		<g id="peoplebrasilrect">
			<path class="st15" d="M507.5,1969.7v225.9H207.3v-225.9H507.5 M509.5,1967.7h-2H207.3h-2v2v225.9v2h2h300.2h2v-2v-225.9V1967.7
				L509.5,1967.7z"/>
		</g>
	</g>
	<g id="brasil">
		<g id="brasilbrasiltext">
			<text transform="matrix(1 0 0 1 208.498 1889.8856)" class="st15 st8 st10">brazil - 2</text>
		</g>
		
			<image style="overflow:visible;enable-background:new    ;" width="213" height="134" id="brasilbrasilimage" xlink:href="C2A69EAB.jpg"  transform="matrix(0.2546 0 0 0.2546 849.097 2028.8236)">
		</image>
		<rect id="brasilbrasilrect" x="849" y="2029.3" class="st18" width="54" height="34"/>
	</g>
</g>
<g id="Kenya">
	<g id="switch">
		<rect id="XMLID_183_" x="207.6" y="1224.2" class="st3" width="86.7" height="27.8"/>
		<g id="XMLID_182_">
			<text transform="matrix(1 0 0 1 218.4048 1242.6345)" class="st4 st5 st6">namibia</text>
		</g>
		<rect id="XMLID_179_" x="310.4" y="1224.2" class="st3" width="86.7" height="27.8"/>
		<g id="XMLID_176_">
			<text transform="matrix(1 0 0 1 321.1702 1242.6345)" class="st4 st5 st6">canada</text>
		</g>
		<rect id="XMLID_173_" x="413.2" y="1224.2" class="st19" width="86.7" height="27.8"/>
		<g id="XMLID_170_">
			<text transform="matrix(1 0 0 1 423.9355 1242.6345)" class="st4 st5 st6">kenya</text>
		</g>
		<rect id="XMLID_167_" x="515.9" y="1224.2" class="st3" width="86.7" height="27.8"/>
		<g id="XMLID_164_">
			<text transform="matrix(1 0 0 1 526.7009 1242.6345)" class="st4 st5 st6">brasil</text>
		</g>
	</g>
	<g id="agrigulture">
		
			<image style="overflow:visible;enable-background:new    ;" width="2000" height="1334" id="agricultureimage" xlink:href="C2A69EA8.jpg"  transform="matrix(0.1026 0 0 0.1026 673.1431 1521.6483)">
		</image>
		<g id="agriculturetext">
			<text transform="matrix(1 0 0 1 208.498 1352.4048)" class="st20 st8 st10">agriculture - 11</text>
		</g>
		<rect id="agriculturerect" x="673" y="1521.3" class="st21" width="205" height="137"/>
	</g>
	<g id="world">
		<g id="worldtext">
			<text transform="matrix(1 0 0 1 208.498 1352.4048)" class="st20 st8 st10">world - 1</text>
		</g>
		
			<image style="overflow:visible;enable-background:new    ;" width="175" height="175" id="worldimage" xlink:href="C2A69ED7.jpg"  transform="matrix(7.021498e-02 0 0 7.021498e-02 1032 1503.2531)">
		</image>
		<rect id="worldrect" x="1031.5" y="1502.8" class="st22" width="13" height="13"/>
	</g>
	<g id="village">
		
			<image style="overflow:visible;enable-background:new    ;" width="693" height="520" id="villageimage" xlink:href="C2A69ED9.jpg"  transform="matrix(0.2153 0 0 0.2153 673.1431 1402.2788)">
		</image>
		<g id="villagetext">
			<text transform="matrix(1 0 0 1 208.498 1352.4048)" class="st20 st8 st10">village - 9</text>
		</g>
		<rect id="villagerect" x="673" y="1402.3" class="st21" width="149" height="112"/>
	</g>
	<g id="moneykenya">
		
			<image style="overflow:visible;" width="480" height="360" id="moneykenyaimage" xlink:href="C2A69EDB.png"  transform="matrix(0.1891 0 0 0.1817 936.5937 1457.8328)">
		</image>
		<g id="moneykenyatext">
			<text transform="matrix(1 0 0 1 208.498 1352.4048)" class="st20 st8 st10">money - 4</text>
		</g>
		<rect id="moneykenyarect" x="937" y="1465.3" class="st21" width="90" height="50"/>
	</g>
	<g id="nature">
		
			<image style="overflow:visible;enable-background:new    ;" width="2592" height="1944" id="natureimage" xlink:href="C2A69ED8.jpg"  transform="matrix(1.896238e-02 0 0 1.896238e-02 1011.8969 1520.6483)">
		</image>
		<g id="naturetext">
			<text transform="matrix(1 0 0 1 208.498 1352.4048)" class="st20 st8 st10">nature - 3</text>
		</g>
		<rect id="naturerect" x="1012" y="1521.3" class="st22" width="49" height="36"/>
	</g>
	<g id="sms">
		
			<image style="overflow:visible;enable-background:new    ;" width="1200" height="630" id="smsimage" xlink:href="C2A69EDF.jpg"  transform="matrix(9.870940e-02 0 0 9.870938e-02 887.1284 1521.6483)">
		</image>
		<g id="smstext">
			<text transform="matrix(1 0 0 1 208.498 1352.4048)" class="st20 st8 st10">sms - 5</text>
		</g>
		<rect id="smsrect" x="887" y="1521.3" class="st21" width="119" height="63"/>
	</g>
	<g id="kenyapeople">
		
			<image style="overflow:visible;" width="1600" height="960" id="kenyapeopleimage" xlink:href="C2A69ED9.png"  transform="matrix(0.285 0 0 0.285 207.6377 1384.8575)">
		</image>
		<g id="kenyapeopletext">
			<text transform="matrix(1 0 0 1 208.498 1352.4048)" class="st20 st8 st10">people - 37</text>
		</g>
		<rect id="kenyapeoplerect" x="208" y="1385.3" class="st21" width="456" height="273"/>
	</g>
	<g id="pilotkenya">
		
			<image style="overflow:visible;enable-background:new    ;" width="736" height="524" id="pilotkenyaimage" xlink:href="C2A69EDB.jpg"  transform="matrix(0.1424 0 0 0.1424 827.7545 1439.8737)">
		</image>
		<g id="pilotkenyatext">
			<text transform="matrix(1 0 0 1 208.498 1352.4048)" class="st20 st8 st10">pilot kenya - 6</text>
		</g>
		<rect id="pilotkenyarect" x="828" y="1440.3" class="st21" width="105" height="74"/>
	</g>
</g>
<g id="Namibia">
	<g id="switch">
		<rect id="XMLID_1480_" x="207.6" y="149.2" class="st23" width="86.7" height="27.8"/>
		<text id="XMLID_1479_" transform="matrix(1 0 0 1 218.4048 167.673)" class="st0 st8 st6">namibia</text>
		<rect id="XMLID_1476_" x="310.4" y="149.2" class="st3" width="86.7" height="27.8"/>
		<g id="XMLID_1467_">
			<text transform="matrix(1 0 0 1 321.1702 167.673)" class="st4 st5 st6">canada</text>
		</g>
		<rect id="XMLID_1463_" x="413.2" y="149.2" class="st3" width="86.7" height="27.8"/>
		<g id="XMLID_1460_">
			<text transform="matrix(1 0 0 1 423.9355 167.673)" class="st4 st5 st6">kenya</text>
		</g>
		<rect id="XMLID_1457_" x="515.9" y="149.2" class="st3" width="86.7" height="27.8"/>
		<g id="XMLID_1379_">
			<text transform="matrix(1 0 0 1 526.7009 167.673)" class="st4 st5 st6">brasil</text>
		</g>
	</g>
			<g id="desertnamibia" transform="matrix(0.43074061,0,0,-0.43074061,8.293601,376.65873)" transform-center-x="56.676712" transform-center-y="-24.128137">
		<rect id="desertrect" x="1921.2" y="102.5" class="st24" width="75" height="57"/>
		
			<image style="overflow:visible;enable-background:new    ;" width="1920" height="1440" id="desertimage" xlink:href="C2A69EFC.png"  transform="matrix(9.157757e-02 0 0 -9.157758e-02 1870.8964 196.4657)">
		</image>
		<text id="deserttext" transform="matrix(2.3216 0 0 -2.3216 464.7908 230.3364)" class="st25 st8 st10">desert - 3</text>
	</g>
	
		<g id="posternamibia" transform="matrix(0.43074061,0,0,-0.43074061,38.650671,353.27599)" transform-center-x="26.450703" transform-center-y="-30.012968">
		<g id="posterrect" class="st26">
			<path class="st27" d="M1772,274.9V10.3h-484v264.6H1772 M1776.6,279.6h-4.6h-484h-4.6v-4.6V10.3V5.7h4.6h484h4.6v4.6v264.6V279.6
				L1776.6,279.6z"/>
		</g>
		
			<image style="overflow:visible;enable-background:new    ;" width="567" height="310" id="posterimage" xlink:href="C2A69EC3.png"  transform="matrix(0.8536 0 0 -0.8536 1287.9921 274.9355)">
		</image>
		<text id="posterstext" transform="matrix(2.3216 0 0 -2.3216 394.3144 176.0515)" class="st25 st8 st10">posters - 6</text>
	</g>
	
		<g id="berlinonamibia" transform="matrix(0.43074061,0,0,-0.43074061,91.065641,417.94221)" transform-center-x="-25.857624" transform-center-y="-8.6797248">
		<rect id="berlinonamibiarect" x="1998.3" y="15.8" class="st28" width="24" height="18"/>
		
			<image style="overflow:visible;enable-background:new    ;" width="450" height="337" id="berlinonamibiaimage" xlink:href="C2A69EC4.png"  transform="matrix(0.1236 0 0 -0.1236 1981.7318 46.3172)">
		</image>
		<text id="berlinonamibiatext" transform="matrix(2.3216 0 0 -2.3216 272.6288 326.1793)" class="st25 st8 st10">berlino - 1 </text>
	</g>
	
		<g id="politicsnamibia" transform="matrix(0.43074061,0,0,-0.43074061,88.633272,338.62508)" transform-center-x="-13.974431" transform-center-y="17.524446">
		<rect id="politicsrect" x="1286.6" y="-417.9" class="st24" width="175" height="227"/>
		
			<image style="overflow:visible;enable-background:new    ;" width="197" height="256" id="politicsimage" xlink:href="C2A69EC7.png"  transform="matrix(2.0605 0 0 -2.0605 1171.9513 -41.3532)">
		</image>
		<text id="politicstext" transform="matrix(2.3216 0 0 -2.3216 278.2758 142.0382)" class="st25 st8 st10">politics - 12</text>
	</g>
	
		<g id="chartsnamibia" transform="matrix(0.43074061,0,0,-0.43074061,36.514046,399.10812)" transform-center-x="-9.1984166" transform-center-y="-20.127051">
		<rect id="chartsrect" x="1806.3" y="-119.7" class="st24" width="132" height="132"/>
		
			<image style="overflow:visible;enable-background:new    ;" width="1200" height="1229" id="chartsimage" xlink:href="C2A69EC5.png"  transform="matrix(0.2485 0 0 -0.2485 1720.1815 99.0645)">
		</image>
		<text id="chartstext" transform="matrix(2.3216 0 0 -2.3216 399.2747 282.4545)" class="st25 st8 st10">charts - 7</text>
	</g>
	
		<g id="peoplenamibia" transform="matrix(0.43074061,0,0,-0.43074061,18.572332,280.65619)" transform-center-x="44.108293" transform-center-y="12.166488">
		<rect id="peoplerect" x="689.7" y="-516" class="st24" width="380" height="284"/>
		
			<image style="overflow:visible;enable-background:new    ;" width="550" height="411" id="peopleimage" xlink:href="C2A69EC2.png"  transform="matrix(1.6043 0 0 -1.6043 438.9264 -44.0685)">
		</image>
		<text id="peopletext" transform="matrix(2.3216 0 0 -2.3216 440.9279 7.4587)" class="st25 st8 st10">people - 15</text>
	</g>
	<g id="moneynamibia">
		<rect id="moneyrect" x="912.5" y="397.8" class="st28" width="28" height="18"/>
		
			<image style="overflow:visible;enable-background:new    ;" width="4626" height="2993" id="moneyimage" xlink:href="C2A69ECC.png"  transform="matrix(6.304712e-03 0 0 6.304713e-03 911.2419 397.3831)">
		</image>
		<text id="moneytext" transform="matrix(1 0 0 1 208.498 277.4434)" class="st25 st8 st10">money - 1</text>
	</g>
	<g id="canadanamibia">
		<rect id="canadarect" x="912.5" y="356.8" class="st29" width="54" height="36"/>
		<text id="canadatext" transform="matrix(1.2505 0 0 1 208.4971 270.8185)" class="st25 st8 st30">canada - 2</text>
		
			<image style="overflow:visible;enable-background:new    ;" width="1154" height="768" id="canadaimage" xlink:href="C2A69ECF.png"  transform="matrix(4.671246e-02 0 0 4.671247e-02 912.7296 356.4368)">
		</image>
	</g>
</g>
</svg>